<svg xmlns="http://www.w3.org/2000/svg" xmlns:xlink="http://www.w3.org/1999/xlink" width="169.459" height="42.48" viewBox="0 0 169.459 42.48">
  <defs>
    <linearGradient id="linear-gradient" y1="0.5" x2="0.93" y2="0.5" gradientUnits="objectBoundingBox">
      <stop offset="0" stop-color="#691116"/>
      <stop offset="0.127" stop-color="#801117"/>
      <stop offset="0.277" stop-color="#941119"/>
      <stop offset="0.448" stop-color="#a3111a"/>
      <stop offset="0.655" stop-color="#ab111a"/>
      <stop offset="1" stop-color="#ae121b"/>
    </linearGradient>
    <radialGradient id="radial-gradient" cx="-1074.77" cy="-656.8" r="18.247" gradientTransform="matrix(0.365, -0.027, 0.008, 0.109, -806.596, -688.371)" gradientUnits="userSpaceOnUse">
      <stop offset="0" stop-color="#f67972"/>
      <stop offset="0.301" stop-color="#d84f4e"/>
      <stop offset="0.595" stop-color="#c12d32"/>
      <stop offset="0.838" stop-color="#b31921"/>
      <stop offset="1" stop-color="#ae121b"/>
    </radialGradient>
  </defs>
  <g id="logo" transform="translate(-101.402 -76.352)">
    <g id="LOGO-2" data-name="LOGO" transform="translate(101.402 78.319)">
      <path id="Path_2385" data-name="Path 2385" d="M113.514,104.85c2.264-2.726,14.594-9.756,36.306-12.443,0-4.632-2.109-7.858-7.2-7.858-10.261,0-31.294,4.3-41.221,19.621,0,12.927,14.481,20.892,22.213,20.892,4.792,0,9.72-3,13.992-7.375-1.578.034-4.578-.107-5.715-.126-13.3-.215-28.719-6.7-19.03-12.272-7.333,6.264,15.852,6.607,30.089,5.741a47.07,47.07,0,0,0,5.464-11.008C135.494,99.1,117.806,102.655,113.514,104.85Z" transform="translate(-101.402 -84.549)" fill="url(#linear-gradient)"/>
      <path id="Path_2386" data-name="Path 2386" d="M234.453,91.92c-4.723.329-8.477-.676-8.6-2.412s3.607-3.41,8.332-3.739,8.654.813,8.778,2.549S239.179,91.592,234.453,91.92Z" transform="translate(-195.987 -85.434)" fill="url(#radial-gradient)"/>
    </g>
    <g id="WORTMARKE" transform="translate(161.73 76.352)">
      <g id="Group_803" data-name="Group 803" transform="translate(0.058 25.9)">
        <path id="Path_2387" data-name="Path 2387" d="M354.625,196.849v5.61c0,.2-.054.23-.257.23H353.31c-.176,0-.257-.041-.257-.23v-5.8c0-.65.176-1,.908-1.125a17.4,17.4,0,0,1,1.775-.122c2.4,0,3.469.962,3.469,3.469v3.578c0,.2-.054.23-.257.23h-1.07c-.176,0-.258-.041-.258-.23v-3.6c0-1.409-.406-2.087-1.924-2.087A6.282,6.282,0,0,0,354.625,196.849Z" transform="translate(-353.053 -192.743)" fill="#907464"/>
        <path id="Path_2388" data-name="Path 2388" d="M389.3,202.365a7.116,7.116,0,0,1-2.764.474c-2.385,0-3.035-1.03-3.035-2.263,0-1.26.8-2.426,2.954-2.426h1.518v-.231c0-.691-.23-1.192-1.4-1.192a7.679,7.679,0,0,0-1.884.271c-.19.054-.271.027-.312-.136l-.19-.772c-.041-.149-.014-.23.122-.285a7.662,7.662,0,0,1,2.521-.393c1.87,0,2.724.867,2.724,2.439v4.065A.436.436,0,0,1,389.3,202.365Zm-1.342-3.008h-1.3c-.6,0-1.545.081-1.545,1.166,0,.772.569,1.043,1.436,1.043a4.751,4.751,0,0,0,1.409-.217Z" transform="translate(-376.193 -192.743)" fill="#907464"/>
        <path id="Path_2389" data-name="Path 2389" d="M419.068,201.1c.2-.095.257-.054.312.1l.339.786c.095.163.068.257-.081.339a5.118,5.118,0,0,1-2.4.515c-2.019,0-3.13-1.247-3.13-3.659,0-2.29,1.26-3.767,3.279-3.767a4.389,4.389,0,0,1,2.06.474c.163.081.2.163.108.339l-.339.8c-.068.149-.122.176-.339.1a4.036,4.036,0,0,0-1.423-.3c-1.233,0-1.734,1.111-1.734,2.358s.366,2.277,1.762,2.277A4.085,4.085,0,0,0,419.068,201.1Z" transform="translate(-399.457 -192.743)" fill="#907464"/>
        <path id="Path_2390" data-name="Path 2390" d="M448.021,194.363h-1.07c-.176,0-.257-.041-.257-.23v-3.795c0-1.219-.461-1.883-1.585-1.883a3.943,3.943,0,0,0-1.409.217v5.461c0,.2-.054.23-.258.23h-1.057c-.176,0-.258-.041-.258-.23v-9.445c0-.19.081-.23.258-.23h1.057c.2,0,.258.041.258.23v2.656a5.774,5.774,0,0,1,1.694-.257c1.992,0,2.9,1.179,2.9,3.144v3.9C448.292,194.336,448.224,194.363,448.021,194.363Z" transform="translate(-420.752 -184.416)" fill="#907464"/>
        <path id="Path_2391" data-name="Path 2391" d="M480.28,194.363h-1.07c-.176,0-.257-.041-.257-.23v-3.795c0-1.219-.461-1.883-1.585-1.883a3.945,3.945,0,0,0-1.41.217v5.461c0,.2-.054.23-.258.23h-1.057c-.176,0-.258-.041-.258-.23v-9.445c0-.19.081-.23.258-.23H475.7c.2,0,.258.041.258.23v2.656a5.776,5.776,0,0,1,1.694-.257c1.992,0,2.9,1.179,2.9,3.144v3.9C480.551,194.336,480.483,194.363,480.28,194.363Z" transform="translate(-445.27 -184.416)" fill="#907464"/>
        <path id="Path_2392" data-name="Path 2392" d="M510.659,202.365a7.116,7.116,0,0,1-2.764.474c-2.385,0-3.036-1.03-3.036-2.263,0-1.26.8-2.426,2.954-2.426h1.518v-.231c0-.691-.231-1.192-1.4-1.192a7.677,7.677,0,0,0-1.884.271c-.19.054-.271.027-.312-.136l-.19-.772c-.041-.149-.013-.23.122-.285a7.661,7.661,0,0,1,2.521-.393c1.87,0,2.724.867,2.724,2.439v4.065A.436.436,0,0,1,510.659,202.365Zm-1.342-3.008h-1.3c-.6,0-1.545.081-1.545,1.166,0,.772.569,1.043,1.436,1.043a4.751,4.751,0,0,0,1.409-.217Z" transform="translate(-468.431 -192.743)" fill="#907464"/>
        <path id="Path_2393" data-name="Path 2393" d="M539.756,194.038c.027.176.014.217-.162.3a3.872,3.872,0,0,1-1.233.176c-1,0-1.464-.42-1.464-1.586v-8.239c0-.2.081-.23.258-.23h1.07c.19,0,.271.027.271.23v7.86c0,.474.109.61.461.61.149,0,.366-.027.488-.041.149-.013.2.014.217.163Z" transform="translate(-492.781 -184.416)" fill="#907464"/>
        <path id="Path_2394" data-name="Path 2394" d="M553.575,196.989a5.805,5.805,0,0,1-1.64.2c-1.477,0-2.033-.623-2.033-1.924v-4.133h-.962c-.19,0-.217-.1-.217-.23v-.556c0-.163.041-.217.217-.257l1.03-.23.176-1.287c.027-.2.108-.244.3-.312l.786-.271c.149-.027.244.014.244.217v1.721h1.45c.19,0,.217.1.217.217v.759c0,.162-.013.23-.217.23h-1.45v3.93c0,.569.271.759.827.759a9.176,9.176,0,0,0,1.016-.095c.176-.027.217.013.23.136l.149.867C553.711,196.84,553.738,196.922,553.575,196.989Z" transform="translate(-501.771 -187.097)" fill="#907464"/>
        <path id="Path_2395" data-name="Path 2395" d="M574.125,186.239a.976.976,0,1,1,.976-.975A.971.971,0,0,1,574.125,186.239Zm.5,8h-1.044c-.176,0-.257-.041-.257-.23V187.35c0-.19.081-.23.257-.23h1.044c.2,0,.271.027.271.23V194C574.9,194.207,574.829,194.235,574.626,194.235Z" transform="translate(-520.334 -184.288)" fill="#907464"/>
        <path id="Path_2396" data-name="Path 2396" d="M592.662,202.125c0,2.466-1.233,3.388-3.6,3.7-.162.027-.23,0-.258-.149l-.135-1.03c-.014-.136.027-.19.162-.217,1.342-.2,2.223-.569,2.223-1.721v-.081a6.153,6.153,0,0,1-1.68.244c-2.141,0-3.09-1.464-3.09-3.591,0-2.168,1.057-3.753,3.429-3.753a7.15,7.15,0,0,1,2.737.474.31.31,0,0,1,.217.325Zm-3.022-.61a5.591,5.591,0,0,0,1.423-.2V197.03a5.135,5.135,0,0,0-1.287-.176c-1.125.014-1.87.637-1.87,2.358C587.905,200.784,588.556,201.516,589.64,201.516Z" transform="translate(-530.314 -192.829)" fill="#907464"/>
        <path id="Path_2397" data-name="Path 2397" d="M640.648,202.365a7.118,7.118,0,0,1-2.765.474c-2.385,0-3.035-1.03-3.035-2.263,0-1.26.8-2.426,2.954-2.426h1.518v-.231c0-.691-.231-1.192-1.4-1.192a7.679,7.679,0,0,0-1.884.271c-.19.054-.271.027-.311-.136l-.19-.772c-.041-.149-.013-.23.122-.285a7.661,7.661,0,0,1,2.521-.393c1.87,0,2.724.867,2.724,2.439v4.065A.436.436,0,0,1,640.648,202.365Zm-1.342-3.008h-1.3c-.6,0-1.545.081-1.545,1.166,0,.772.569,1.043,1.437,1.043a4.753,4.753,0,0,0,1.409-.217Z" transform="translate(-567.228 -192.743)" fill="#907464"/>
        <path id="Path_2398" data-name="Path 2398" d="M668.25,196.849v5.61c0,.2-.054.23-.257.23h-1.057c-.176,0-.258-.041-.258-.23v-5.8c0-.65.176-1,.908-1.125a17.409,17.409,0,0,1,1.775-.122c2.4,0,3.469.962,3.469,3.469v3.578c0,.2-.054.23-.257.23H671.5c-.176,0-.257-.041-.257-.23v-3.6c0-1.409-.406-2.087-1.924-2.087A6.283,6.283,0,0,0,668.25,196.849Z" transform="translate(-591.42 -192.743)" fill="#907464"/>
        <path id="Path_2399" data-name="Path 2399" d="M700.906,187.142a5.729,5.729,0,0,1,1.45.163v-2.561c0-.2.068-.231.271-.231h1.057c.176,0,.258.027.258.231v8.985c0,.677-2.466.826-3.09.826-2.412,0-3.266-1.45-3.266-3.6C697.586,188.917,698.575,187.142,700.906,187.142Zm.163,6.071a4.345,4.345,0,0,0,1.287-.2v-4.35a5.124,5.124,0,0,0-1.3-.162c-1.057,0-1.83.691-1.83,2.453C699.226,192.617,699.9,193.213,701.069,193.213Z" transform="translate(-614.911 -184.459)" fill="#907464"/>
        <path id="Path_2400" data-name="Path 2400" d="M735.858,198.408c0,.949-.474,1.179-1.084,1.193h-3.6a1.705,1.705,0,0,0,1.9,1.883,3.8,3.8,0,0,0,1.585-.366c.163-.068.23-.054.3.081l.366.772c.068.149.041.244-.095.311a4.474,4.474,0,0,1-2.29.556c-2.182,0-3.374-1.125-3.374-3.672,0-2.372,1.355-3.754,3.239-3.754A2.727,2.727,0,0,1,735.858,198.408Zm-4.634.054h3.117c0-.962-.3-1.735-1.518-1.735A1.686,1.686,0,0,0,731.224,198.462Z" transform="translate(-639.211 -192.743)" fill="#907464"/>
        <path id="Path_2401" data-name="Path 2401" d="M762.54,202.733H761.5c-.176,0-.257-.041-.257-.23v-5.814c0-.718.176-1.043.949-1.152a8.148,8.148,0,0,1,1-.068,4.62,4.62,0,0,1,2.981.949.163.163,0,0,1,.041.258l-.623.894c-.095.149-.176.1-.3.014a2.74,2.74,0,0,0-1.843-.7,3.267,3.267,0,0,0-.637.054v5.57C762.811,202.705,762.743,202.733,762.54,202.733Z" transform="translate(-663.29 -192.786)" fill="#907464"/>
        <path id="Path_2402" data-name="Path 2402" d="M786.767,202.839a5.96,5.96,0,0,1-2.751-.6.214.214,0,0,1-.095-.325l.325-.759c.081-.163.149-.2.352-.122a5.757,5.757,0,0,0,2.141.488c.759,0,1.138-.325,1.138-.8,0-.515-.5-.772-1.463-1.125-1.464-.542-2.209-1.044-2.209-2.141,0-1.179.867-2.046,2.534-2.046a6.016,6.016,0,0,1,2.236.42c.149.068.162.176.122.325l-.312.772c-.054.149-.135.149-.271.095a4.969,4.969,0,0,0-1.789-.325c-.664,0-.962.339-.962.677,0,.488.379.691,1.382,1.071,1.165.434,2.29.921,2.29,2.249C789.437,202.148,788.285,202.839,786.767,202.839Z" transform="translate(-680.5 -192.743)" fill="#907464"/>
      </g>
      <g id="Group_804" data-name="Group 804" transform="translate(0 0)">
        <path id="Path_2403" data-name="Path 2403" d="M364.738,103.081c0,1.8-.9,2.232-2.052,2.257h-6.824c.051,2.668,1.616,3.566,3.591,3.566a7.188,7.188,0,0,0,3-.693c.308-.128.436-.1.564.154l.693,1.462c.128.282.077.462-.18.59a8.473,8.473,0,0,1-4.335,1.052c-4.13,0-6.388-2.129-6.388-6.952,0-4.489,2.565-7.106,6.131-7.106C362.866,97.412,364.738,99.592,364.738,103.081Zm-8.773.1h5.9c0-1.821-.564-3.283-2.873-3.283A3.192,3.192,0,0,0,355.965,103.184Z" transform="translate(-352.81 -92.358)" fill="#131313"/>
        <path id="Path_2404" data-name="Path 2404" d="M414.818,100.131v10.62c0,.385-.1.436-.488.436h-2c-.334,0-.487-.077-.487-.436V99.772c0-1.231.333-1.9,1.719-2.129a32.935,32.935,0,0,1,3.361-.231c4.541,0,6.567,1.821,6.567,6.567v6.772c0,.385-.1.436-.487.436h-2.027c-.333,0-.487-.077-.487-.436v-6.824c0-2.668-.77-3.95-3.643-3.95A11.886,11.886,0,0,0,414.818,100.131Z" transform="translate(-397.677 -92.358)" fill="#131313"/>
        <path id="Path_2405" data-name="Path 2405" d="M481.765,103.081c0,1.8-.9,2.232-2.052,2.257H472.89c.051,2.668,1.616,3.566,3.591,3.566a7.186,7.186,0,0,0,3-.693c.308-.128.436-.1.565.154l.692,1.462c.129.282.077.462-.18.59a8.472,8.472,0,0,1-4.335,1.052c-4.13,0-6.388-2.129-6.388-6.952,0-4.489,2.565-7.106,6.131-7.106C479.893,97.412,481.765,99.592,481.765,103.081Zm-8.773.1h5.9c0-1.821-.564-3.283-2.873-3.283A3.192,3.192,0,0,0,472.992,103.184Z" transform="translate(-441.755 -92.358)" fill="#131313"/>
        <path id="Path_2406" data-name="Path 2406" d="M531.759,111.269h-1.975c-.334,0-.487-.077-.487-.436v-11c0-1.36.333-1.975,1.8-2.181a15.37,15.37,0,0,1,1.9-.128,8.743,8.743,0,0,1,5.644,1.8.308.308,0,0,1,.077.487l-1.18,1.693c-.179.282-.333.179-.564.026a5.184,5.184,0,0,0-3.489-1.334,6.219,6.219,0,0,0-1.206.1v10.543C532.272,111.217,532.143,111.269,531.759,111.269Z" transform="translate(-486.946 -92.44)" fill="#131313"/>
        <path id="Path_2407" data-name="Path 2407" d="M583.646,110.118c0,4.669-2.335,6.413-6.824,7-.308.051-.436,0-.487-.282l-.256-1.949c-.026-.257.051-.359.308-.411,2.54-.385,4.207-1.077,4.207-3.258v-.154a11.642,11.642,0,0,1-3.181.462c-4.053,0-5.849-2.771-5.849-6.8,0-4.1,2-7.106,6.49-7.106a13.533,13.533,0,0,1,5.182.9.587.587,0,0,1,.411.616Zm-5.721-1.154a10.572,10.572,0,0,0,2.694-.385v-8.106a9.714,9.714,0,0,0-2.437-.334c-2.129.026-3.54,1.206-3.54,4.464C574.641,107.578,575.873,108.964,577.925,108.964Z" transform="translate(-519.071 -92.52)" fill="#131313"/>
        <path id="Path_2408" data-name="Path 2408" d="M635.456,80.046A1.847,1.847,0,1,1,637.3,78.2,1.839,1.839,0,0,1,635.456,80.046Zm.949,15.135H634.43c-.333,0-.487-.077-.487-.436v-12.6c0-.359.154-.436.487-.436h1.975c.385,0,.513.051.513.436v12.6C636.918,95.13,636.79,95.181,636.405,95.181Z" transform="translate(-566.228 -76.352)" fill="#131313"/>
        <path id="Path_2409" data-name="Path 2409" d="M667.329,108.186c.385-.179.488-.1.59.18l.641,1.488c.179.308.128.488-.154.641a9.689,9.689,0,0,1-4.541.975c-3.822,0-5.926-2.36-5.926-6.926,0-4.335,2.386-7.131,6.208-7.131a8.309,8.309,0,0,1,3.9.9c.308.154.385.308.205.641l-.641,1.513c-.128.282-.231.334-.641.18a7.641,7.641,0,0,0-2.693-.564c-2.335,0-3.284,2.1-3.284,4.464,0,2.386.693,4.31,3.335,4.31A7.738,7.738,0,0,0,667.329,108.186Z" transform="translate(-584.721 -92.358)" fill="#131313"/>
        <path id="Path_2410" data-name="Path 2410" d="M712.844,111.47c-4.13,0-6.157-2.463-6.157-7,0-4.489,2.565-7.054,6.234-7.054,4.079,0,6.208,2.642,6.208,6.978C719.129,108.9,717,111.47,712.844,111.47Zm.128-11.544c-2.206,0-3.258,1.924-3.258,4.464,0,2.822.8,4.566,3.155,4.566,2.411,0,3.207-2.1,3.207-4.489C716.076,102,715.46,99.926,712.972,99.926Z" transform="translate(-621.77 -92.358)" fill="#131313"/>
        <path id="Path_2411" data-name="Path 2411" d="M769.239,111.47a11.28,11.28,0,0,1-5.207-1.129.4.4,0,0,1-.18-.616l.616-1.436c.154-.308.282-.385.667-.231a10.892,10.892,0,0,0,4.053.923c1.437,0,2.155-.616,2.155-1.513,0-.975-.949-1.462-2.77-2.129-2.771-1.026-4.182-1.975-4.182-4.053,0-2.232,1.642-3.873,4.8-3.873a11.377,11.377,0,0,1,4.233.8c.282.128.308.334.231.616l-.59,1.462c-.1.282-.257.282-.513.179a9.4,9.4,0,0,0-3.386-.616c-1.257,0-1.821.641-1.821,1.283,0,.923.718,1.308,2.617,2.026,2.206.821,4.335,1.744,4.335,4.258C774.293,110.161,772.112,111.47,769.239,111.47Z" transform="translate(-665.162 -92.358)" fill="#131313"/>
      </g>
    </g>
  </g>
</svg>
